<svg width="23" height="24" viewBox="0 0 23 24" fill="none" xmlns="http://www.w3.org/2000/svg">
<path fill-rule="evenodd" clip-rule="evenodd" d="M8.95089 2.71261e-07C8.52861 -0.000208391 8.11495 0.11997 7.75801 0.34656C7.40107 0.573151 7.11551 0.896843 6.93454 1.28C6.06274 1.28768 5.38467 1.32736 4.77798 1.56544C4.05374 1.84995 3.42388 2.33346 2.96046 2.96064C2.4927 3.59168 2.2722 4.4032 1.97141 5.51808L1.9115 5.73568L1.25765 9.5296C1.02186 9.69344 0.816657 9.888 0.638219 10.1171C-0.510157 11.593 0.0366281 13.7907 1.1302 18.1824C1.82483 20.9766 2.17279 22.3731 3.21028 23.1872C4.24777 24 5.68164 24 8.5494 24H14.4506C17.3184 24 18.7522 24 19.7897 23.1872C20.8272 22.3731 21.1739 20.9766 21.8698 18.1824C22.9634 13.7894 23.5102 11.5942 22.3618 10.1171C22.1862 9.88999 21.9769 9.69139 21.7411 9.52832L21.0872 5.73696L21.0286 5.51936C20.7265 4.4032 20.506 3.59168 20.0395 2.95936C19.5759 2.33265 18.9461 1.8496 18.222 1.56544C17.6153 1.32736 16.936 1.28768 16.0655 1.28128C15.8847 0.897884 15.5992 0.573927 15.2422 0.347101C14.8853 0.120275 14.4715 -9.35881e-05 14.0491 2.71261e-07H8.95089ZM19.6801 8.82688L19.2187 6.15424C18.858 4.82304 18.7267 4.40448 18.505 4.10496C18.2554 3.76718 17.9162 3.50679 17.5261 3.3536C17.2457 3.24352 16.9067 3.21152 16.0629 3.20256C15.8818 3.58485 15.5964 3.90775 15.24 4.13384C14.8836 4.35993 14.4707 4.47995 14.0491 4.48H8.95089C8.52932 4.47995 8.1164 4.35993 7.75998 4.13384C7.40356 3.90775 7.11824 3.58485 6.93708 3.20256C6.09205 3.21152 5.75429 3.24352 5.47389 3.3536C5.08383 3.50679 4.7446 3.76718 4.49503 4.10496C4.27326 4.40448 4.14198 4.82176 3.78128 6.15296L3.31989 8.82688C4.5919 8.64 6.28706 8.64 8.5494 8.64H14.4506C16.7129 8.64 18.4081 8.64 19.6801 8.82688ZM6.40177 12.8C6.6553 12.8 6.89844 12.9011 7.07771 13.0812C7.25698 13.2612 7.35769 13.5054 7.35769 13.76V18.88C7.35769 19.1346 7.25698 19.3788 7.07771 19.5588C6.89844 19.7389 6.6553 19.84 6.40177 19.84C6.14824 19.84 5.9051 19.7389 5.72583 19.5588C5.54656 19.3788 5.44585 19.1346 5.44585 18.88V13.76C5.44585 13.5054 5.54656 13.2612 5.72583 13.0812C5.9051 12.9011 6.14824 12.8 6.40177 12.8ZM17.5542 13.76C17.5542 13.5054 17.4534 13.2612 17.2742 13.0812C17.0949 12.9011 16.8518 12.8 16.5982 12.8C16.3447 12.8 16.1016 12.9011 15.9223 13.0812C15.743 13.2612 15.6423 13.5054 15.6423 13.76V18.88C15.6423 19.1346 15.743 19.3788 15.9223 19.5588C16.1016 19.7389 16.3447 19.84 16.5982 19.84C16.8518 19.84 17.0949 19.7389 17.2742 19.5588C17.4534 19.3788 17.5542 19.1346 17.5542 18.88V13.76ZM11.5 12.8C11.7535 12.8 11.9967 12.9011 12.1759 13.0812C12.3552 13.2612 12.4559 13.5054 12.4559 13.76V18.88C12.4559 19.1346 12.3552 19.3788 12.1759 19.5588C11.9967 19.7389 11.7535 19.84 11.5 19.84C11.2465 19.84 11.0033 19.7389 10.8241 19.5588C10.6448 19.3788 10.5441 19.1346 10.5441 18.88V13.76C10.5441 13.5054 10.6448 13.2612 10.8241 13.0812C11.0033 12.9011 11.2465 12.8 11.5 12.8Z" fill="white"/>
</svg>
