<svg width="29" height="25" viewBox="0 0 29 25" fill="none" xmlns="http://www.w3.org/2000/svg">
<path d="M28.9924 12.4756C28.9924 13.3545 28.2371 14.043 27.3811 14.043H25.7699L25.8051 21.8652C25.8051 21.9971 25.7951 22.1289 25.78 22.2607V23.0469C25.78 24.126 24.8787 25 23.7659 25H22.9603C22.9049 25 22.8495 25 22.7941 24.9951C22.7236 25 22.6531 25 22.5827 25H19.7378C18.625 25 17.7237 24.126 17.7237 23.0469V18.75C17.7237 17.8857 17.0037 17.1875 16.1125 17.1875H12.89C11.9988 17.1875 11.2787 17.8857 11.2787 18.75V23.0469C11.2787 24.126 10.3774 25 9.26468 25H6.45003C6.3745 25 6.29897 24.9951 6.22345 24.9902C6.16302 24.9951 6.1026 25 6.04218 25H5.23656C4.12379 25 3.2225 24.126 3.2225 23.0469V17.5781C3.2225 17.5342 3.2225 17.4854 3.22753 17.4414V14.043H1.61125C0.704921 14.043 0 13.3594 0 12.4756C0 12.0361 0.151055 11.6455 0.503515 11.3037L13.4136 0.390625C13.7661 0.0488281 14.1689 0 14.5214 0C14.8738 0 15.2766 0.0976562 15.5788 0.341797L28.4385 11.3037C28.8413 11.6455 29.0427 12.0361 28.9924 12.4756Z" fill="white"/>
</svg>
