<svg width="52" height="44" viewBox="0 0 52 44" fill="none" xmlns="http://www.w3.org/2000/svg">
<path fill-rule="evenodd" clip-rule="evenodd" d="M0 0H29.3333C41.4836 0 51.3333 9.84974 51.3333 22C51.3333 34.1503 41.4836 44 29.3333 44H9.77778L15.4815 39.1111H29.3333C38.7835 39.1111 46.4444 31.4502 46.4444 22C46.4444 12.5498 38.7835 4.88889 29.3333 4.88889H4.88889V35.037V39.1111V44H0V0Z" fill="white"/>
<path fill-rule="evenodd" clip-rule="evenodd" d="M29.7407 9.7778H9.77777V32.5926V33.4074V44L15.4815 39.1111V33.4074H29.7407C36.2659 33.4074 41.5556 28.1177 41.5556 21.5926C41.5556 15.0675 36.2659 9.7778 29.7407 9.7778Z" fill="white"/>
</svg>
