<svg width="19" height="11" viewBox="0 0 19 11" fill="none" xmlns="http://www.w3.org/2000/svg">
<path d="M0.863636 8.63636H18.1364V10.3636H0.863636V8.63636ZM1.85682 5.13864L2.59091 3.86046L3.325 5.13864L4.44773 4.49091L3.71364 3.21273H5.18182V1.91727H3.71364L4.44773 0.647727L3.325 0L2.59091 1.26955L1.85682 0L0.734091 0.647727L1.46818 1.91727H0V3.21273H1.46818L0.734091 4.49091L1.85682 5.13864ZM7.64318 4.49091L8.76591 5.13864L9.5 3.86046L10.2341 5.13864L11.3568 4.49091L10.6227 3.21273H12.0909V1.91727H10.6227L11.3568 0.647727L10.2341 0L9.5 1.26955L8.76591 0L7.64318 0.647727L8.37727 1.91727H6.90909V3.21273H8.37727L7.64318 4.49091ZM19 1.91727H17.5318L18.2659 0.647727L17.1432 0L16.4091 1.26955L15.675 0L14.5523 0.647727L15.2864 1.91727H13.8182V3.21273H15.2864L14.5523 4.49091L15.675 5.13864L16.4091 3.86046L17.1432 5.13864L18.2659 4.49091L17.5318 3.21273H19V1.91727Z" fill="#12238A"/>
</svg>
